<?xml version="1.0" standalone="no"?>
<!DOCTYPE svg PUBLIC "-//W3C//DTD SVG 20010904//EN"
 "http://www.w3.org/TR/2001/REC-SVG-20010904/DTD/svg10.dtd">
<svg version="1.0" xmlns="http://www.w3.org/2000/svg"
 width="512.000000pt" height="512.000000pt" viewBox="0 0 512.000000 512.000000"
 preserveAspectRatio="xMidYMid meet">
<metadata>
Created by potrace 1.11, written by Peter Selinger 2001-2013
</metadata>
<g transform="translate(0.000000,512.000000) scale(0.100000,-0.100000)"
fill="#000000" stroke="none">
<path d="M2120 4911 c0 -3 -17 -6 -37 -7 -48 0 -104 -12 -119 -24 -6 -6 -13
-7 -16 -4 -9 8 -88 -17 -88 -28 0 -5 -4 -6 -10 -3 -5 3 -10 2 -10 -4 0 -6 -6
-8 -14 -5 -7 3 -20 -1 -27 -8 -8 -7 -23 -15 -34 -16 -27 -5 -95 -44 -95 -54 0
-5 -4 -7 -8 -4 -5 3 -19 -4 -30 -15 -12 -11 -22 -16 -22 -12 -1 4 -8 -1 -18
-13 -9 -11 -20 -20 -24 -20 -3 1 -36 -24 -73 -54 -63 -52 -336 -339 -344 -362
-2 -5 -15 -22 -30 -37 -15 -14 -49 -55 -77 -91 -27 -35 -57 -73 -66 -84 -10
-10 -15 -23 -12 -28 3 -4 -1 -11 -9 -14 -15 -5 -83 -94 -72 -94 3 0 -6 -11
-20 -25 -14 -14 -25 -30 -25 -36 0 -5 -9 -19 -20 -31 -10 -12 -17 -25 -14 -30
3 -4 1 -8 -5 -8 -11 0 -87 -121 -83 -132 1 -5 -1 -8 -6 -8 -4 0 -19 -21 -32
-47 -14 -27 -28 -50 -31 -53 -10 -9 -40 -70 -34 -70 4 0 -1 -7 -9 -16 -9 -8
-16 -22 -16 -30 0 -8 -4 -14 -8 -14 -10 0 -98 -190 -94 -202 1 -4 -2 -8 -7 -8
-10 0 -34 -54 -34 -76 0 -8 -4 -14 -9 -14 -5 0 -6 -4 -3 -10 3 -5 2 -10 -3
-10 -9 0 -27 -47 -24 -62 1 -5 -3 -8 -10 -8 -6 0 -9 -2 -6 -6 3 -3 -5 -26 -18
-51 -13 -26 -21 -50 -18 -55 3 -4 1 -8 -3 -8 -11 0 -34 -60 -27 -71 3 -5 0 -9
-6 -9 -6 0 -8 -4 -5 -10 3 -5 1 -10 -4 -10 -6 0 -11 -8 -11 -18 0 -10 -3 -22
-7 -26 -13 -12 -42 -99 -37 -108 3 -4 1 -8 -5 -8 -9 0 -25 -51 -21 -66 1 -4
-3 -10 -9 -13 -6 -4 -12 -17 -14 -29 -2 -12 -6 -25 -10 -28 -4 -4 -7 -17 -7
-29 0 -11 -4 -25 -9 -30 -6 -6 -12 -21 -14 -35 -3 -14 -10 -38 -16 -53 -6 -16
-9 -32 -6 -37 3 -5 1 -10 -4 -12 -6 -1 -12 -14 -14 -28 -2 -14 -6 -32 -9 -40
-14 -35 -38 -149 -42 -190 -1 -14 -5 -30 -8 -35 -9 -16 -20 -140 -24 -265 -3
-137 -15 -247 -33 -307 -5 -17 -8 -96 -7 -175 1 -142 1 -143 35 -206 19 -35
40 -66 48 -69 7 -3 13 -11 13 -18 0 -14 101 -101 112 -98 5 2 8 -1 8 -6 0 -5
12 -16 28 -24 15 -8 52 -28 82 -46 104 -59 230 -121 230 -114 0 5 4 2 9 -5 4
-7 18 -14 29 -15 12 -1 22 -4 22 -7 0 -3 24 -16 53 -29 28 -13 64 -30 79 -37
15 -8 29 -14 30 -14 4 2 39 -12 101 -39 26 -11 49 -20 52 -21 3 0 20 -6 38
-13 27 -12 101 -38 117 -42 3 -1 14 -5 25 -9 58 -22 95 -36 98 -35 1 0 9 -2
17 -5 26 -9 162 -48 179 -51 9 -2 29 -8 45 -14 16 -7 31 -9 34 -6 3 2 11 0 18
-6 8 -6 21 -9 29 -5 8 3 15 0 15 -6 0 -6 3 -8 6 -5 4 3 14 2 23 -2 9 -5 34
-11 56 -15 22 -3 58 -10 80 -15 22 -6 41 -8 44 -6 2 3 10 0 17 -6 8 -6 20 -9
29 -6 8 4 17 2 20 -3 3 -5 16 -10 28 -10 32 0 70 -6 90 -15 9 -4 26 -5 37 -2
11 3 23 1 26 -4 3 -5 17 -9 32 -9 70 -1 112 -6 112 -13 0 -5 20 -7 45 -4 25 2
45 0 45 -4 0 -4 22 -7 48 -6 27 0 53 -2 58 -5 5 -3 38 -7 74 -9 119 -6 783 -3
875 5 131 10 160 13 160 16 0 1 23 3 50 5 28 1 50 3 50 4 0 1 27 4 60 7 33 2
67 7 75 10 8 4 24 8 35 9 86 10 130 17 135 23 3 4 19 8 35 8 49 3 96 13 109
24 7 5 15 8 18 5 6 -7 118 16 118 24 0 3 10 7 23 7 33 2 78 13 118 29 20 8 39
11 43 8 3 -4 6 -1 6 5 0 6 7 9 15 6 8 -4 15 -1 15 5 0 6 6 8 13 5 8 -3 27 1
43 7 16 7 35 13 42 15 8 1 21 6 30 10 9 4 24 8 33 10 9 2 29 9 45 15 16 7 37
14 47 15 26 6 161 75 165 85 2 5 9 9 15 9 14 0 170 140 163 147 -2 2 11 20 30
40 19 19 34 39 34 45 0 5 9 22 20 38 11 15 17 30 13 34 -3 3 -2 6 4 6 10 0 28
46 25 63 -1 4 3 7 9 7 6 0 9 9 6 20 -3 10 0 21 7 23 17 6 16 1659 -2 1665 -6
2 -10 7 -7 12 6 10 -52 142 -68 152 -7 4 -8 8 -4 8 5 0 -15 30 -44 68 -74 94
-202 208 -220 196 -5 -3 -9 0 -9 6 0 12 -130 74 -138 65 -3 -3 -10 -1 -16 4
-21 17 -138 35 -221 34 -141 -2 -335 -27 -335 -44 0 -4 -7 -6 -15 -3 -8 3 -20
2 -27 -2 -7 -5 -22 -10 -33 -11 -11 -2 -21 -8 -23 -13 -2 -5 -9 -7 -17 -4 -7
3 -16 0 -20 -5 -3 -6 -11 -9 -16 -6 -5 4 -9 2 -9 -2 0 -5 -9 -9 -21 -10 -11
-1 -33 -10 -47 -19 -15 -10 -27 -16 -27 -14 0 8 -142 -74 -212 -122 -86 -59
-293 -259 -293 -282 0 -3 -13 -20 -30 -38 -16 -18 -30 -36 -30 -40 0 -4 -8
-17 -17 -28 -10 -11 -17 -23 -15 -26 1 -2 -7 -14 -18 -26 -11 -12 -20 -28 -20
-35 0 -11 -7 -10 -36 2 -20 8 -40 13 -44 10 -5 -3 -10 0 -12 6 -2 6 -16 12
-31 12 -15 1 -27 6 -27 11 0 4 -9 6 -20 3 -11 -3 -20 -1 -20 5 0 6 -7 8 -15 4
-8 -3 -15 -2 -15 3 0 4 -6 8 -12 8 -7 0 -26 4 -43 7 -88 20 -293 21 -405 3
-19 -4 -52 -9 -72 -13 -21 -3 -38 -10 -38 -15 0 -6 -4 -8 -9 -4 -10 6 -118
-31 -138 -48 -7 -5 -13 -7 -13 -3 0 9 -137 -65 -161 -87 -10 -10 -19 -15 -19
-12 0 4 -17 -6 -37 -22 -21 -17 -42 -32 -48 -35 -6 -4 -10 21 -11 65 -2 96
-13 227 -21 252 -3 11 -8 38 -9 60 -2 22 -5 56 -8 75 -14 100 -17 127 -17 153
0 15 -3 27 -7 27 -7 0 -11 42 -12 129 -1 29 -5 62 -10 72 -7 12 -6 20 1 25 7
4 130 7 275 6 145 0 264 3 264 8 0 4 14 6 32 4 17 -2 37 1 45 7 7 6 13 9 13 5
0 -4 19 3 43 15 46 23 537 504 537 526 0 7 4 13 10 13 13 0 50 74 56 113 11
73 12 97 4 97 -5 0 -7 7 -4 15 9 21 -24 111 -53 146 l-25 29 25 53 c20 41 25
67 25 125 -1 40 -5 75 -10 78 -4 3 -6 9 -3 14 8 12 -32 90 -46 90 -6 0 -8 4
-5 8 10 17 -164 159 -178 145 -3 -3 -6 -2 -6 4 0 14 -262 182 -287 184 -5 1
-24 7 -43 16 -19 8 -50 15 -67 16 -18 1 -33 6 -33 11 0 4 -7 6 -15 3 -8 -4
-17 -3 -19 2 -6 9 -256 11 -256 2z m193 -240 c22 0 90 -8 95 -12 1 -1 5 -2 10
-3 4 -1 16 -7 27 -13 11 -6 29 -13 40 -14 10 -2 26 -10 35 -17 21 -18 238
-162 245 -162 2 0 14 -8 26 -17 64 -53 75 -83 49 -133 -17 -33 -346 -370 -361
-370 -5 0 -9 -5 -9 -11 0 -5 -4 -8 -9 -4 -5 3 -12 1 -15 -4 -3 -4 -25 -5 -48
-1 -24 5 -45 7 -49 5 -15 -10 -40 59 -38 103 3 49 14 66 103 153 22 22 36 39
32 39 -4 0 0 7 8 16 18 17 22 64 5 64 -5 0 -7 5 -3 11 7 12 -55 81 -67 73 -4
-2 -10 0 -14 6 -9 15 -51 12 -68 -5 -8 -8 -17 -12 -19 -9 -3 2 -44 -37 -93
-88 -77 -81 -114 -137 -107 -160 1 -5 -2 -8 -7 -8 -6 0 -10 -8 -11 -17 0 -10
-2 -46 -4 -80 -3 -35 0 -65 5 -69 5 -3 7 -9 4 -14 -11 -18 41 -107 95 -161 55
-55 142 -104 167 -95 7 3 13 2 13 -3 0 -15 123 -6 180 13 48 17 74 37 195 158
76 76 142 138 146 138 18 0 14 -52 -6 -85 -29 -49 -413 -432 -447 -448 -16 -6
-28 -14 -28 -17 0 -4 -102 -4 -448 -1 l-53 1 21 22 c18 19 27 55 20 83 -1 6
-3 15 -3 22 0 7 -15 27 -33 44 -48 46 -107 49 -155 8 -19 -16 -33 -34 -32 -39
2 -6 -2 -10 -7 -10 -13 0 -51 -61 -44 -72 3 -4 1 -8 -4 -8 -11 0 -29 -46 -27
-70 0 -8 -4 -18 -10 -22 -6 -4 -9 -71 -9 -175 2 -183 3 -196 29 -388 11 -80
17 -130 16 -147 0 -10 3 -18 7 -18 4 0 8 -17 9 -38 0 -20 4 -62 7 -92 19 -175
22 -406 5 -440 -1 -3 -3 -9 -4 -15 -1 -5 -7 -23 -14 -39 -6 -16 -13 -36 -14
-45 -2 -9 -10 -27 -19 -41 -9 -14 -18 -32 -20 -40 -2 -8 -13 -23 -26 -33 -13
-11 -21 -22 -18 -24 13 -13 -169 -133 -201 -133 -16 0 -83 -62 -77 -71 3 -5 1
-9 -4 -9 -5 0 -9 -20 -8 -44 1 -35 8 -52 30 -75 16 -17 33 -28 38 -25 4 3 8 1
8 -4 0 -5 12 -10 28 -10 38 -1 102 17 102 28 0 5 7 7 15 4 8 -4 15 -1 15 5 0
6 4 10 8 9 13 -4 112 60 112 72 0 6 4 9 8 6 15 -9 172 167 172 193 0 6 4 11 9
11 5 0 13 12 19 28 22 60 171 244 234 287 8 6 43 29 79 52 35 23 69 46 75 52
7 5 15 7 18 4 3 -4 6 -2 6 3 0 5 10 10 22 11 11 1 25 8 29 15 5 7 9 10 9 6 0
-4 26 2 58 13 31 11 68 22 82 25 14 2 41 7 60 11 19 3 45 5 58 4 12 -1 22 1
22 6 0 9 124 8 190 -2 25 -4 54 -8 65 -10 11 -1 28 -6 39 -10 10 -4 31 -8 47
-9 16 -1 29 -4 29 -9 0 -4 3 -6 8 -5 10 2 58 -18 125 -52 31 -17 57 -28 57
-25 0 3 8 -2 18 -10 27 -24 121 -95 126 -95 2 0 20 -16 40 -36 22 -22 42 -34
51 -30 8 3 15 1 15 -4 0 -25 67 2 103 42 33 36 37 46 33 80 -4 31 -16 51 -58
92 -29 29 -70 65 -90 80 -34 26 -43 43 -27 56 3 3 19 25 34 50 15 25 41 62 57
83 16 20 27 37 24 37 -11 0 167 166 212 198 25 18 50 38 54 45 4 6 8 8 8 4 0
-5 15 0 33 11 48 29 152 86 152 83 0 -2 12 0 28 4 15 4 27 11 27 17 0 5 4 7 9
4 5 -4 22 -1 38 5 35 15 33 14 113 29 36 6 77 11 93 11 15 -1 27 2 27 6 0 14
181 4 239 -13 31 -9 64 -16 74 -17 9 -1 17 -5 17 -9 0 -4 21 -19 48 -32 100
-51 197 -188 227 -321 4 -16 9 -39 11 -50 5 -23 5 -1354 0 -1400 -2 -16 -8
-43 -15 -58 -6 -16 -11 -34 -11 -42 0 -8 -4 -17 -10 -20 -6 -3 -10 -13 -10
-21 0 -15 -29 -61 -64 -101 -11 -13 -16 -23 -11 -23 4 0 -23 -23 -61 -52 -38
-28 -71 -56 -72 -60 -2 -4 -8 -6 -13 -3 -4 3 -26 -3 -48 -15 -22 -11 -45 -20
-50 -20 -5 0 -22 -5 -38 -12 -15 -6 -31 -11 -35 -10 -5 1 -8 -3 -8 -9 0 -5 -4
-7 -10 -4 -5 3 -18 1 -28 -4 -11 -6 -34 -13 -52 -16 -18 -3 -40 -10 -49 -14
-9 -5 -35 -12 -58 -16 -24 -4 -43 -10 -43 -14 0 -4 -8 -7 -17 -8 -39 -3 -88
-15 -91 -23 -2 -4 -12 -6 -22 -3 -11 3 -20 1 -20 -3 0 -5 -12 -10 -27 -11 -29
-1 -71 -9 -113 -20 -14 -4 -32 -8 -40 -9 -8 -1 -28 -5 -45 -9 -16 -3 -37 -7
-45 -7 -8 0 -22 -2 -30 -5 -8 -3 -26 -7 -40 -8 -14 -2 -43 -6 -65 -10 -22 -3
-49 -8 -60 -9 -11 -2 -20 -4 -20 -5 0 -1 -31 -4 -70 -6 -38 -2 -90 -7 -115
-11 -185 -26 -671 -31 -980 -8 -129 9 -175 13 -175 15 0 2 -70 10 -118 12 -20
1 -37 6 -37 10 0 5 -8 7 -17 6 -10 -1 -34 1 -53 4 -19 4 -51 9 -70 12 -36 5
-218 42 -255 51 -11 3 -27 7 -35 8 -9 1 -21 5 -27 9 -7 5 -28 9 -46 11 -19 2
-39 6 -46 10 -6 4 -16 4 -21 1 -6 -3 -10 -2 -10 3 0 5 -6 9 -12 10 -15 1 -37
7 -58 15 -8 3 -42 13 -75 22 -33 10 -67 20 -75 23 -8 3 -19 6 -25 7 -5 1 -27
9 -49 18 -21 9 -42 15 -46 12 -5 -3 -10 -1 -12 5 -1 5 -12 11 -23 13 -11 2
-38 11 -60 21 -22 10 -48 18 -57 19 -10 1 -18 5 -18 10 0 5 -7 7 -15 3 -8 -3
-15 -1 -15 4 0 5 -12 13 -27 16 -16 4 -34 11 -40 17 -7 5 -13 6 -13 1 0 -5 -4
-4 -8 1 -11 16 -82 46 -93 40 -5 -4 -9 -2 -9 4 0 8 -31 23 -50 24 -3 0 -11 7
-18 14 -8 7 -17 11 -22 8 -5 -3 -10 -1 -12 3 -5 13 -145 82 -152 75 -3 -4 -6
-2 -6 4 0 11 -59 40 -72 35 -5 -1 -8 2 -8 8 0 5 -21 21 -47 34 -27 13 -60 37
-74 53 -28 29 -74 113 -63 113 4 0 1 6 -5 13 -6 8 -9 16 -7 18 2 2 6 29 9 59
3 30 10 67 16 82 5 14 10 35 10 45 1 24 9 87 12 93 4 8 9 93 14 215 4 113 9
172 19 215 7 31 17 87 21 120 2 14 4 27 6 30 1 3 3 10 4 15 2 6 4 12 5 15 5
13 12 47 13 63 1 9 5 17 10 17 4 0 7 8 6 18 -1 9 6 34 15 55 9 21 14 42 11 47
-4 6 -2 10 3 10 5 0 15 21 22 48 16 58 9 38 56 161 14 35 23 66 20 68 -3 3 2
12 10 20 8 9 13 21 10 29 -3 7 -2 14 2 16 12 5 43 79 37 89 -4 5 -2 9 2 9 9 0
47 89 44 103 -1 4 5 15 14 23 8 9 15 24 15 34 0 10 5 22 10 25 6 4 8 11 5 16
-4 5 -1 9 4 9 6 0 11 5 11 10 0 6 22 59 50 117 27 58 47 109 44 114 -3 5 -1 9
3 9 5 0 17 14 26 30 10 17 15 30 12 30 -4 0 1 7 9 16 9 8 14 19 11 24 -3 5 -2
10 3 12 11 4 97 160 94 170 -1 4 2 8 6 8 9 0 108 156 112 175 1 6 8 14 16 18
8 5 12 12 9 18 -4 5 -2 9 3 9 5 0 22 19 38 43 15 23 37 52 48 65 11 12 17 22
13 22 -3 0 4 11 16 24 27 29 127 153 127 158 0 15 391 420 399 413 2 -2 31 15
65 38 33 22 62 40 64 38 5 -5 62 21 62 28 0 3 11 7 25 7 14 1 33 8 42 15 9 8
24 13 35 11 10 -2 18 1 18 6 0 6 8 8 19 5 10 -3 22 0 25 6 4 5 13 8 21 4 8 -3
23 -2 33 2 9 4 37 7 62 7 25 0 52 4 59 8 8 4 25 4 38 -1 13 -5 34 -9 46 -8z"/>
</g>
</svg>
